<?xml version="1.0" encoding="UTF-8" standalone="no"?>
<!DOCTYPE svg PUBLIC "-//W3C//DTD SVG 1.1//EN"
 "http://www.w3.org/Graphics/SVG/1.1/DTD/svg11.dtd">
<!-- Generated by graphviz version 2.44.0 ()
 -->
<!-- Title: spic::Component Pages: 1 -->
<svg width="373pt" height="218pt"
 viewBox="0.00 0.00 373.00 218.00" xmlns="http://www.w3.org/2000/svg" xmlns:xlink="http://www.w3.org/1999/xlink">
<g id="graph0" class="graph" transform="scale(1 1) rotate(0) translate(4 214)">
<title>spic::Component</title>
<polygon fill="white" stroke="transparent" points="-4,4 -4,-214 369,-214 369,4 -4,4"/>
<!-- Node1 -->
<g id="node1" class="node">
<title>Node1</title>
<g id="a_node1"><a xlink:title="Base class for all components.">
<polygon fill="#bfbfbf" stroke="black" points="0,-95.5 0,-114.5 89,-114.5 89,-95.5 0,-95.5"/>
<text text-anchor="middle" x="44.5" y="-102.5" font-family="Helvetica,sans-Serif" font-size="10.00">spic::Component</text>
</a>
</g>
</g>
<!-- Node2 -->
<g id="node2" class="node">
<title>Node2</title>
<g id="a_node2"><a xlink:href="classspic_1_1Animator.html" target="_top" xlink:title="A component which can play animated sequences of sprites.">
<polygon fill="white" stroke="black" points="140,-190.5 140,-209.5 218,-209.5 218,-190.5 140,-190.5"/>
<text text-anchor="middle" x="179" y="-197.5" font-family="Helvetica,sans-Serif" font-size="10.00">spic::Animator</text>
</a>
</g>
</g>
<!-- Node1&#45;&gt;Node2 -->
<g id="edge1" class="edge">
<title>Node1&#45;&gt;Node2</title>
<path fill="none" stroke="midnightblue" d="M60.14,-122.79C74.95,-139.78 99.27,-165.1 125,-181 130.99,-184.7 137.8,-187.82 144.5,-190.4"/>
<polygon fill="midnightblue" stroke="midnightblue" points="62.45,-120.1 53.3,-114.75 57.12,-124.64 62.45,-120.1"/>
</g>
<!-- Node3 -->
<g id="node3" class="node">
<title>Node3</title>
<g id="a_node3"><a xlink:href="classspic_1_1AudioSource.html" target="_top" xlink:title="Component which can play audio.">
<polygon fill="white" stroke="black" points="131.5,-152.5 131.5,-171.5 226.5,-171.5 226.5,-152.5 131.5,-152.5"/>
<text text-anchor="middle" x="179" y="-159.5" font-family="Helvetica,sans-Serif" font-size="10.00">spic::AudioSource</text>
</a>
</g>
</g>
<!-- Node1&#45;&gt;Node3 -->
<g id="edge2" class="edge">
<title>Node1&#45;&gt;Node3</title>
<path fill="none" stroke="midnightblue" d="M73.5,-119.24C88.59,-126.7 107.63,-135.76 125,-143 132.94,-146.31 141.68,-149.59 149.74,-152.47"/>
<polygon fill="midnightblue" stroke="midnightblue" points="74.72,-115.94 64.21,-114.61 71.6,-122.2 74.72,-115.94"/>
</g>
<!-- Node4 -->
<g id="node4" class="node">
<title>Node4</title>
<g id="a_node4"><a xlink:href="classspic_1_1BehaviourScript.html" target="_top" xlink:title=" ">
<polygon fill="white" stroke="black" points="125,-114.5 125,-133.5 233,-133.5 233,-114.5 125,-114.5"/>
<text text-anchor="middle" x="179" y="-121.5" font-family="Helvetica,sans-Serif" font-size="10.00">spic::BehaviourScript</text>
</a>
</g>
</g>
<!-- Node1&#45;&gt;Node4 -->
<g id="edge3" class="edge">
<title>Node1&#45;&gt;Node4</title>
<path fill="none" stroke="midnightblue" d="M99.27,-112.71C107.62,-113.91 116.25,-115.15 124.6,-116.34"/>
<polygon fill="midnightblue" stroke="midnightblue" points="99.65,-109.23 89.25,-111.27 98.65,-116.16 99.65,-109.23"/>
</g>
<!-- Node5 -->
<g id="node5" class="node">
<title>Node5</title>
<g id="a_node5"><a xlink:href="classspic_1_1Collider.html" target="_top" xlink:title="The base class for all colliders.">
<polygon fill="white" stroke="black" points="143.5,-76.5 143.5,-95.5 214.5,-95.5 214.5,-76.5 143.5,-76.5"/>
<text text-anchor="middle" x="179" y="-83.5" font-family="Helvetica,sans-Serif" font-size="10.00">spic::Collider</text>
</a>
</g>
</g>
<!-- Node1&#45;&gt;Node5 -->
<g id="edge4" class="edge">
<title>Node1&#45;&gt;Node5</title>
<path fill="none" stroke="midnightblue" d="M99.3,-97.28C114.07,-95.17 129.69,-92.93 143.1,-91.01"/>
<polygon fill="midnightblue" stroke="midnightblue" points="98.65,-93.84 89.25,-98.73 99.65,-100.77 98.65,-93.84"/>
</g>
<!-- Node8 -->
<g id="node8" class="node">
<title>Node8</title>
<g id="a_node8"><a xlink:href="classspic_1_1RigidBody.html" target="_top" xlink:title="A component representing a rigid body.">
<polygon fill="white" stroke="black" points="137.5,-38.5 137.5,-57.5 220.5,-57.5 220.5,-38.5 137.5,-38.5"/>
<text text-anchor="middle" x="179" y="-45.5" font-family="Helvetica,sans-Serif" font-size="10.00">spic::RigidBody</text>
</a>
</g>
</g>
<!-- Node1&#45;&gt;Node8 -->
<g id="edge7" class="edge">
<title>Node1&#45;&gt;Node8</title>
<path fill="none" stroke="midnightblue" d="M73.5,-90.76C88.59,-83.3 107.63,-74.24 125,-67 132.94,-63.69 141.68,-60.41 149.74,-57.53"/>
<polygon fill="midnightblue" stroke="midnightblue" points="71.6,-87.8 64.21,-95.39 74.72,-94.06 71.6,-87.8"/>
</g>
<!-- Node9 -->
<g id="node9" class="node">
<title>Node9</title>
<g id="a_node9"><a xlink:href="classspic_1_1Sprite.html" target="_top" xlink:title="A component representing a sprite (small image)">
<polygon fill="white" stroke="black" points="146.5,-0.5 146.5,-19.5 211.5,-19.5 211.5,-0.5 146.5,-0.5"/>
<text text-anchor="middle" x="179" y="-7.5" font-family="Helvetica,sans-Serif" font-size="10.00">spic::Sprite</text>
</a>
</g>
</g>
<!-- Node1&#45;&gt;Node9 -->
<g id="edge8" class="edge">
<title>Node1&#45;&gt;Node9</title>
<path fill="none" stroke="midnightblue" d="M60.14,-87.21C74.95,-70.22 99.27,-44.9 125,-29 131.57,-24.94 139.13,-21.58 146.45,-18.87"/>
<polygon fill="midnightblue" stroke="midnightblue" points="57.12,-85.36 53.3,-95.25 62.45,-89.9 57.12,-85.36"/>
</g>
<!-- Node6 -->
<g id="node6" class="node">
<title>Node6</title>
<g id="a_node6"><a xlink:href="classspic_1_1BoxCollider.html" target="_top" xlink:title="A collider which represents a rectangular collision area.">
<polygon fill="white" stroke="black" points="273,-95.5 273,-114.5 361,-114.5 361,-95.5 273,-95.5"/>
<text text-anchor="middle" x="317" y="-102.5" font-family="Helvetica,sans-Serif" font-size="10.00">spic::BoxCollider</text>
</a>
</g>
</g>
<!-- Node5&#45;&gt;Node6 -->
<g id="edge5" class="edge">
<title>Node5&#45;&gt;Node6</title>
<path fill="none" stroke="midnightblue" d="M224.96,-92.28C240.3,-94.42 257.41,-96.81 272.62,-98.94"/>
<polygon fill="midnightblue" stroke="midnightblue" points="225.06,-88.76 214.67,-90.84 224.09,-95.69 225.06,-88.76"/>
</g>
<!-- Node7 -->
<g id="node7" class="node">
<title>Node7</title>
<g id="a_node7"><a xlink:href="classspic_1_1CircleCollider.html" target="_top" xlink:title="A collider which represents a circular collision area.">
<polygon fill="white" stroke="black" points="269,-57.5 269,-76.5 365,-76.5 365,-57.5 269,-57.5"/>
<text text-anchor="middle" x="317" y="-64.5" font-family="Helvetica,sans-Serif" font-size="10.00">spic::CircleCollider</text>
</a>
</g>
</g>
<!-- Node5&#45;&gt;Node7 -->
<g id="edge6" class="edge">
<title>Node5&#45;&gt;Node7</title>
<path fill="none" stroke="midnightblue" d="M224.66,-79.76C238.81,-77.78 254.5,-75.59 268.82,-73.59"/>
<polygon fill="midnightblue" stroke="midnightblue" points="224.09,-76.31 214.67,-81.16 225.06,-83.24 224.09,-76.31"/>
</g>
</g>
</svg>
