<?xml version="1.0" encoding="UTF-8" standalone="no"?>
<!DOCTYPE svg PUBLIC "-//W3C//DTD SVG 1.1//EN"
 "http://www.w3.org/Graphics/SVG/1.1/DTD/svg11.dtd">
<!-- Generated by graphviz version 2.44.0 ()
 -->
<!-- Title: spic::GameObject Pages: 1 -->
<svg width="208pt" height="140pt"
 viewBox="0.00 0.00 207.50 140.00" xmlns="http://www.w3.org/2000/svg" xmlns:xlink="http://www.w3.org/1999/xlink">
<g id="graph0" class="graph" transform="scale(1 1) rotate(0) translate(4 136)">
<title>spic::GameObject</title>
<polygon fill="white" stroke="transparent" points="-4,4 -4,-136 203.5,-136 203.5,4 -4,4"/>
<!-- Node1 -->
<g id="node1" class="node">
<title>Node1</title>
<g id="a_node1"><a xlink:title="Any object which should be represented on screen.">
<polygon fill="#bfbfbf" stroke="black" points="36.5,-112.5 36.5,-131.5 130.5,-131.5 130.5,-112.5 36.5,-112.5"/>
<text text-anchor="middle" x="83.5" y="-119.5" font-family="Helvetica,sans-Serif" font-size="10.00">spic::GameObject</text>
</a>
</g>
</g>
<!-- Node2 -->
<g id="node2" class="node">
<title>Node2</title>
<g id="a_node2"><a xlink:href="classspic_1_1Camera.html" target="_top" xlink:title="Class representing a point of view towards the game scene.">
<polygon fill="white" stroke="black" points="0,-56.5 0,-75.5 73,-75.5 73,-56.5 0,-56.5"/>
<text text-anchor="middle" x="36.5" y="-63.5" font-family="Helvetica,sans-Serif" font-size="10.00">spic::Camera</text>
</a>
</g>
</g>
<!-- Node1&#45;&gt;Node2 -->
<g id="edge1" class="edge">
<title>Node1&#45;&gt;Node2</title>
<path fill="none" stroke="midnightblue" d="M69.08,-104.43C60.84,-94.97 50.85,-83.48 44.12,-75.75"/>
<polygon fill="midnightblue" stroke="midnightblue" points="66.53,-106.84 75.74,-112.08 71.81,-102.24 66.53,-106.84"/>
</g>
<!-- Node3 -->
<g id="node3" class="node">
<title>Node3</title>
<g id="a_node3"><a xlink:href="classspic_1_1UIObject.html" target="_top" xlink:title="Base class for a user interface object like Button or Text.">
<polygon fill="white" stroke="black" points="91.5,-56.5 91.5,-75.5 169.5,-75.5 169.5,-56.5 91.5,-56.5"/>
<text text-anchor="middle" x="130.5" y="-63.5" font-family="Helvetica,sans-Serif" font-size="10.00">spic::UIObject</text>
</a>
</g>
</g>
<!-- Node1&#45;&gt;Node3 -->
<g id="edge2" class="edge">
<title>Node1&#45;&gt;Node3</title>
<path fill="none" stroke="midnightblue" d="M97.92,-104.43C106.16,-94.97 116.15,-83.48 122.88,-75.75"/>
<polygon fill="midnightblue" stroke="midnightblue" points="95.19,-102.24 91.26,-112.08 100.47,-106.84 95.19,-102.24"/>
</g>
<!-- Node4 -->
<g id="node4" class="node">
<title>Node4</title>
<g id="a_node4"><a xlink:href="classspic_1_1Button.html" target="_top" xlink:title="Instances of this class are clickable user interface items.">
<polygon fill="white" stroke="black" points="55.5,-0.5 55.5,-19.5 123.5,-19.5 123.5,-0.5 55.5,-0.5"/>
<text text-anchor="middle" x="89.5" y="-7.5" font-family="Helvetica,sans-Serif" font-size="10.00">spic::Button</text>
</a>
</g>
</g>
<!-- Node3&#45;&gt;Node4 -->
<g id="edge3" class="edge">
<title>Node3&#45;&gt;Node4</title>
<path fill="none" stroke="midnightblue" d="M117.48,-47.86C110.38,-38.5 101.9,-27.33 96.14,-19.75"/>
<polygon fill="midnightblue" stroke="midnightblue" points="114.89,-50.24 123.73,-56.08 120.47,-46 114.89,-50.24"/>
</g>
<!-- Node5 -->
<g id="node5" class="node">
<title>Node5</title>
<g id="a_node5"><a xlink:href="classspic_1_1Text.html" target="_top" xlink:title="Class representing a piece of text which can be rendered.">
<polygon fill="white" stroke="black" points="141.5,-0.5 141.5,-19.5 199.5,-19.5 199.5,-0.5 141.5,-0.5"/>
<text text-anchor="middle" x="170.5" y="-7.5" font-family="Helvetica,sans-Serif" font-size="10.00">spic::Text</text>
</a>
</g>
</g>
<!-- Node3&#45;&gt;Node5 -->
<g id="edge4" class="edge">
<title>Node3&#45;&gt;Node5</title>
<path fill="none" stroke="midnightblue" d="M143.2,-47.86C150.13,-38.5 158.41,-27.33 164.02,-19.75"/>
<polygon fill="midnightblue" stroke="midnightblue" points="140.25,-45.96 137.11,-56.08 145.87,-50.13 140.25,-45.96"/>
</g>
</g>
</svg>
