<?xml version="1.0" encoding="UTF-8" standalone="no"?>
<!DOCTYPE svg PUBLIC "-//W3C//DTD SVG 1.1//EN"
 "http://www.w3.org/Graphics/SVG/1.1/DTD/svg11.dtd">
<!-- Generated by graphviz version 2.44.0 ()
 -->
<!-- Title: spic::Collider Pages: 1 -->
<svg width="210pt" height="140pt"
 viewBox="0.00 0.00 210.00 140.00" xmlns="http://www.w3.org/2000/svg" xmlns:xlink="http://www.w3.org/1999/xlink">
<g id="graph0" class="graph" transform="scale(1 1) rotate(0) translate(4 136)">
<title>spic::Collider</title>
<polygon fill="white" stroke="transparent" points="-4,4 -4,-136 206,-136 206,4 -4,4"/>
<!-- Node1 -->
<g id="node1" class="node">
<title>Node1</title>
<g id="a_node1"><a xlink:title="The base class for all colliders.">
<polygon fill="#bfbfbf" stroke="black" points="63.5,-56.5 63.5,-75.5 134.5,-75.5 134.5,-56.5 63.5,-56.5"/>
<text text-anchor="middle" x="99" y="-63.5" font-family="Helvetica,sans-Serif" font-size="10.00">spic::Collider</text>
</a>
</g>
</g>
<!-- Node3 -->
<g id="node3" class="node">
<title>Node3</title>
<g id="a_node3"><a xlink:href="classspic_1_1BoxCollider.html" target="_top" xlink:title="A collider which represents a rectangular collision area.">
<polygon fill="white" stroke="black" points="0,-0.5 0,-19.5 88,-19.5 88,-0.5 0,-0.5"/>
<text text-anchor="middle" x="44" y="-7.5" font-family="Helvetica,sans-Serif" font-size="10.00">spic::BoxCollider</text>
</a>
</g>
</g>
<!-- Node1&#45;&gt;Node3 -->
<g id="edge2" class="edge">
<title>Node1&#45;&gt;Node3</title>
<path fill="none" stroke="midnightblue" d="M82.71,-49C72.96,-39.43 60.95,-27.64 52.91,-19.75"/>
<polygon fill="midnightblue" stroke="midnightblue" points="80.33,-51.57 89.92,-56.08 85.23,-46.58 80.33,-51.57"/>
</g>
<!-- Node4 -->
<g id="node4" class="node">
<title>Node4</title>
<g id="a_node4"><a xlink:href="classspic_1_1CircleCollider.html" target="_top" xlink:title="A collider which represents a circular collision area.">
<polygon fill="white" stroke="black" points="106,-0.5 106,-19.5 202,-19.5 202,-0.5 106,-0.5"/>
<text text-anchor="middle" x="154" y="-7.5" font-family="Helvetica,sans-Serif" font-size="10.00">spic::CircleCollider</text>
</a>
</g>
</g>
<!-- Node1&#45;&gt;Node4 -->
<g id="edge3" class="edge">
<title>Node1&#45;&gt;Node4</title>
<path fill="none" stroke="midnightblue" d="M115.29,-49C125.04,-39.43 137.05,-27.64 145.09,-19.75"/>
<polygon fill="midnightblue" stroke="midnightblue" points="112.77,-46.58 108.08,-56.08 117.67,-51.57 112.77,-46.58"/>
</g>
<!-- Node2 -->
<g id="node2" class="node">
<title>Node2</title>
<g id="a_node2"><a xlink:href="classspic_1_1Component.html" target="_top" xlink:title="Base class for all components.">
<polygon fill="white" stroke="black" points="54.5,-112.5 54.5,-131.5 143.5,-131.5 143.5,-112.5 54.5,-112.5"/>
<text text-anchor="middle" x="99" y="-119.5" font-family="Helvetica,sans-Serif" font-size="10.00">spic::Component</text>
</a>
</g>
</g>
<!-- Node2&#45;&gt;Node1 -->
<g id="edge1" class="edge">
<title>Node2&#45;&gt;Node1</title>
<path fill="none" stroke="midnightblue" d="M99,-101.8C99,-92.91 99,-82.78 99,-75.75"/>
<polygon fill="midnightblue" stroke="midnightblue" points="95.5,-102.08 99,-112.08 102.5,-102.08 95.5,-102.08"/>
</g>
</g>
</svg>
