<?xml version="1.0" encoding="UTF-8" standalone="no"?>
<!DOCTYPE svg PUBLIC "-//W3C//DTD SVG 1.1//EN"
 "http://www.w3.org/Graphics/SVG/1.1/DTD/svg11.dtd">
<!-- Generated by graphviz version 2.44.0 ()
 -->
<!-- Title: Graphical Class Hierarchy Pages: 1 -->
<svg width="320pt" height="85pt"
 viewBox="0.00 0.00 320.00 85.00" xmlns="http://www.w3.org/2000/svg" xmlns:xlink="http://www.w3.org/1999/xlink">
<g id="graph0" class="graph" transform="scale(1 1) rotate(0) translate(4 81)">
<title>Graphical Class Hierarchy</title>
<polygon fill="white" stroke="transparent" points="-4,4 -4,-81 316,-81 316,4 -4,4"/>
<!-- Node0 -->
<g id="node1" class="node">
<title>Node0</title>
<g id="a_node1"><a xlink:href="classspic_1_1GameObject.html" target="_top" xlink:title="Any object which should be represented on screen.">
<polygon fill="white" stroke="black" points="0,-38.5 0,-57.5 94,-57.5 94,-38.5 0,-38.5"/>
<text text-anchor="middle" x="47" y="-45.5" font-family="Helvetica,sans-Serif" font-size="10.00">spic::GameObject</text>
</a>
</g>
</g>
<!-- Node1 -->
<g id="node2" class="node">
<title>Node1</title>
<g id="a_node2"><a xlink:href="classspic_1_1Camera.html" target="_top" xlink:title="Class representing a point of view towards the game scene.">
<polygon fill="white" stroke="black" points="132.5,-57.5 132.5,-76.5 205.5,-76.5 205.5,-57.5 132.5,-57.5"/>
<text text-anchor="middle" x="169" y="-64.5" font-family="Helvetica,sans-Serif" font-size="10.00">spic::Camera</text>
</a>
</g>
</g>
<!-- Node0&#45;&gt;Node1 -->
<g id="edge1" class="edge">
<title>Node0&#45;&gt;Node1</title>
<path fill="none" stroke="midnightblue" d="M104,-56.87C113.64,-58.39 123.41,-59.94 132.32,-61.35"/>
<polygon fill="midnightblue" stroke="midnightblue" points="104.48,-53.4 94.05,-55.29 103.38,-60.31 104.48,-53.4"/>
</g>
<!-- Node2 -->
<g id="node3" class="node">
<title>Node2</title>
<g id="a_node3"><a xlink:href="classspic_1_1UIObject.html" target="_top" xlink:title="Base class for a user interface object like Button or Text.">
<polygon fill="white" stroke="black" points="130,-19.5 130,-38.5 208,-38.5 208,-19.5 130,-19.5"/>
<text text-anchor="middle" x="169" y="-26.5" font-family="Helvetica,sans-Serif" font-size="10.00">spic::UIObject</text>
</a>
</g>
</g>
<!-- Node0&#45;&gt;Node2 -->
<g id="edge2" class="edge">
<title>Node0&#45;&gt;Node2</title>
<path fill="none" stroke="midnightblue" d="M104.11,-39.12C112.77,-37.75 121.53,-36.36 129.67,-35.07"/>
<polygon fill="midnightblue" stroke="midnightblue" points="103.38,-35.69 94.05,-40.71 104.48,-42.6 103.38,-35.69"/>
</g>
<!-- Node3 -->
<g id="node4" class="node">
<title>Node3</title>
<g id="a_node4"><a xlink:href="classspic_1_1Button.html" target="_top" xlink:title="Instances of this class are clickable user interface items.">
<polygon fill="white" stroke="black" points="244,-38.5 244,-57.5 312,-57.5 312,-38.5 244,-38.5"/>
<text text-anchor="middle" x="278" y="-45.5" font-family="Helvetica,sans-Serif" font-size="10.00">spic::Button</text>
</a>
</g>
</g>
<!-- Node2&#45;&gt;Node3 -->
<g id="edge3" class="edge">
<title>Node2&#45;&gt;Node3</title>
<path fill="none" stroke="midnightblue" d="M218.06,-37.53C226.72,-39.07 235.58,-40.65 243.72,-42.09"/>
<polygon fill="midnightblue" stroke="midnightblue" points="218.48,-34.05 208.03,-35.75 217.26,-40.95 218.48,-34.05"/>
</g>
<!-- Node4 -->
<g id="node5" class="node">
<title>Node4</title>
<g id="a_node5"><a xlink:href="classspic_1_1Text.html" target="_top" xlink:title="Class representing a piece of text which can be rendered.">
<polygon fill="white" stroke="black" points="249,-0.5 249,-19.5 307,-19.5 307,-0.5 249,-0.5"/>
<text text-anchor="middle" x="278" y="-7.5" font-family="Helvetica,sans-Serif" font-size="10.00">spic::Text</text>
</a>
</g>
</g>
<!-- Node2&#45;&gt;Node4 -->
<g id="edge4" class="edge">
<title>Node2&#45;&gt;Node4</title>
<path fill="none" stroke="midnightblue" d="M218,-20.48C228.55,-18.6 239.39,-16.68 248.85,-15"/>
<polygon fill="midnightblue" stroke="midnightblue" points="217.26,-17.05 208.03,-22.25 218.48,-23.95 217.26,-17.05"/>
</g>
</g>
</svg>
