<?xml version="1.0" encoding="UTF-8" standalone="no"?>
<!DOCTYPE svg PUBLIC "-//W3C//DTD SVG 1.1//EN"
 "http://www.w3.org/Graphics/SVG/1.1/DTD/svg11.dtd">
<!-- Generated by graphviz version 2.48.0 (0)
 -->
<!-- Title: spic::UIObject Pages: 1 -->
<svg width="154pt" height="140pt"
 viewBox="0.00 0.00 154.00 140.00" xmlns="http://www.w3.org/2000/svg" xmlns:xlink="http://www.w3.org/1999/xlink">
<g id="graph0" class="graph" transform="scale(1 1) rotate(0) translate(4 136)">
<title>spic::UIObject</title>
<polygon fill="white" stroke="transparent" points="-4,4 -4,-136 150,-136 150,4 -4,4"/>
<!-- Node1 -->
<g id="node1" class="node">
<title>Node1</title>
<g id="a_node1"><a xlink:title="Base class for a user interface object like Button or Text.">
<polygon fill="#bfbfbf" stroke="black" points="35.5,-56.5 35.5,-75.5 115.5,-75.5 115.5,-56.5 35.5,-56.5"/>
<text text-anchor="middle" x="75.5" y="-63.5" font-family="Helvetica,sans-Serif" font-size="10.00">spic::UIObject</text>
</a>
</g>
</g>
<!-- Node3 -->
<g id="node3" class="node">
<title>Node3</title>
<g id="a_node3"><a xlink:href="classspic_1_1Button.html" target="_top" xlink:title="Instances of this class are clickable user interface items.">
<polygon fill="white" stroke="black" points="0,-0.5 0,-19.5 69,-19.5 69,-0.5 0,-0.5"/>
<text text-anchor="middle" x="34.5" y="-7.5" font-family="Helvetica,sans-Serif" font-size="10.00">spic::Button</text>
</a>
</g>
</g>
<!-- Node1&#45;&gt;Node3 -->
<g id="edge2" class="edge">
<title>Node1&#45;&gt;Node3</title>
<path fill="none" stroke="midnightblue" d="M62.48,-47.86C55.38,-38.5 46.9,-27.33 41.14,-19.75"/>
<polygon fill="midnightblue" stroke="midnightblue" points="59.89,-50.24 68.73,-56.08 65.47,-46 59.89,-50.24"/>
</g>
<!-- Node4 -->
<g id="node4" class="node">
<title>Node4</title>
<g id="a_node4"><a xlink:href="classspic_1_1Text.html" target="_top" xlink:title="Class representing a piece of text which can be rendered.">
<polygon fill="white" stroke="black" points="87,-0.5 87,-19.5 146,-19.5 146,-0.5 87,-0.5"/>
<text text-anchor="middle" x="116.5" y="-7.5" font-family="Helvetica,sans-Serif" font-size="10.00">spic::Text</text>
</a>
</g>
</g>
<!-- Node1&#45;&gt;Node4 -->
<g id="edge3" class="edge">
<title>Node1&#45;&gt;Node4</title>
<path fill="none" stroke="midnightblue" d="M88.52,-47.86C95.62,-38.5 104.1,-27.33 109.86,-19.75"/>
<polygon fill="midnightblue" stroke="midnightblue" points="85.53,-46 82.27,-56.08 91.11,-50.24 85.53,-46"/>
</g>
<!-- Node2 -->
<g id="node2" class="node">
<title>Node2</title>
<g id="a_node2"><a xlink:href="classspic_1_1GameObject.html" target="_top" xlink:title="Any object which should be represented on screen.">
<polygon fill="white" stroke="black" points="28,-112.5 28,-131.5 123,-131.5 123,-112.5 28,-112.5"/>
<text text-anchor="middle" x="75.5" y="-119.5" font-family="Helvetica,sans-Serif" font-size="10.00">spic::GameObject</text>
</a>
</g>
</g>
<!-- Node2&#45;&gt;Node1 -->
<g id="edge1" class="edge">
<title>Node2&#45;&gt;Node1</title>
<path fill="none" stroke="midnightblue" d="M75.5,-101.8C75.5,-92.91 75.5,-82.78 75.5,-75.75"/>
<polygon fill="midnightblue" stroke="midnightblue" points="72,-102.08 75.5,-112.08 79,-102.08 72,-102.08"/>
</g>
</g>
</svg>
