<?xml version="1.0" encoding="UTF-8" standalone="no"?>
<!DOCTYPE svg PUBLIC "-//W3C//DTD SVG 1.1//EN"
 "http://www.w3.org/Graphics/SVG/1.1/DTD/svg11.dtd">
<!-- Generated by graphviz version 2.48.0 (0)
 -->
<!-- Title: spic::Component Pages: 1 -->
<svg width="380pt" height="218pt"
 viewBox="0.00 0.00 380.00 218.00" xmlns="http://www.w3.org/2000/svg" xmlns:xlink="http://www.w3.org/1999/xlink">
<g id="graph0" class="graph" transform="scale(1 1) rotate(0) translate(4 214)">
<title>spic::Component</title>
<polygon fill="white" stroke="transparent" points="-4,4 -4,-214 376,-214 376,4 -4,4"/>
<!-- Node1 -->
<g id="node1" class="node">
<title>Node1</title>
<g id="a_node1"><a xlink:title="Base class for all components.">
<polygon fill="#bfbfbf" stroke="black" points="0,-95.5 0,-114.5 91,-114.5 91,-95.5 0,-95.5"/>
<text text-anchor="middle" x="45.5" y="-102.5" font-family="Helvetica,sans-Serif" font-size="10.00">spic::Component</text>
</a>
</g>
</g>
<!-- Node2 -->
<g id="node2" class="node">
<title>Node2</title>
<g id="a_node2"><a xlink:href="classspic_1_1Animator.html" target="_top" xlink:title="A component which can play animated sequences of sprites.">
<polygon fill="white" stroke="black" points="142,-190.5 142,-209.5 222,-209.5 222,-190.5 142,-190.5"/>
<text text-anchor="middle" x="182" y="-197.5" font-family="Helvetica,sans-Serif" font-size="10.00">spic::Animator</text>
</a>
</g>
</g>
<!-- Node1&#45;&gt;Node2 -->
<g id="edge1" class="edge">
<title>Node1&#45;&gt;Node2</title>
<path fill="none" stroke="midnightblue" d="M61.11,-122.54C76.1,-139.55 100.87,-165.07 127,-181 133.11,-184.72 140.05,-187.86 146.88,-190.44"/>
<polygon fill="midnightblue" stroke="midnightblue" points="63.38,-119.81 54.2,-114.51 58.07,-124.37 63.38,-119.81"/>
</g>
<!-- Node3 -->
<g id="node3" class="node">
<title>Node3</title>
<g id="a_node3"><a xlink:href="classspic_1_1AudioSource.html" target="_top" xlink:title="Component which can play audio.">
<polygon fill="white" stroke="black" points="134,-152.5 134,-171.5 230,-171.5 230,-152.5 134,-152.5"/>
<text text-anchor="middle" x="182" y="-159.5" font-family="Helvetica,sans-Serif" font-size="10.00">spic::AudioSource</text>
</a>
</g>
</g>
<!-- Node1&#45;&gt;Node3 -->
<g id="edge2" class="edge">
<title>Node1&#45;&gt;Node3</title>
<path fill="none" stroke="midnightblue" d="M74.42,-119.04C89.76,-126.54 109.24,-135.71 127,-143 135.09,-146.32 144,-149.61 152.21,-152.48"/>
<polygon fill="midnightblue" stroke="midnightblue" points="75.96,-115.9 65.45,-114.62 72.87,-122.18 75.96,-115.9"/>
</g>
<!-- Node4 -->
<g id="node4" class="node">
<title>Node4</title>
<g id="a_node4"><a xlink:href="classspic_1_1BehaviourScript.html" target="_top" xlink:title=" ">
<polygon fill="white" stroke="black" points="127,-114.5 127,-133.5 237,-133.5 237,-114.5 127,-114.5"/>
<text text-anchor="middle" x="182" y="-121.5" font-family="Helvetica,sans-Serif" font-size="10.00">spic::BehaviourScript</text>
</a>
</g>
</g>
<!-- Node1&#45;&gt;Node4 -->
<g id="edge3" class="edge">
<title>Node1&#45;&gt;Node4</title>
<path fill="none" stroke="midnightblue" d="M101.3,-112.74C109.64,-113.92 118.25,-115.14 126.59,-116.31"/>
<polygon fill="midnightblue" stroke="midnightblue" points="101.68,-109.26 91.29,-111.33 100.7,-116.19 101.68,-109.26"/>
</g>
<!-- Node5 -->
<g id="node5" class="node">
<title>Node5</title>
<g id="a_node5"><a xlink:href="classspic_1_1Collider.html" target="_top" xlink:title="The base class for all colliders.">
<polygon fill="white" stroke="black" points="145,-76.5 145,-95.5 219,-95.5 219,-76.5 145,-76.5"/>
<text text-anchor="middle" x="182" y="-83.5" font-family="Helvetica,sans-Serif" font-size="10.00">spic::Collider</text>
</a>
</g>
</g>
<!-- Node1&#45;&gt;Node5 -->
<g id="edge4" class="edge">
<title>Node1&#45;&gt;Node5</title>
<path fill="none" stroke="midnightblue" d="M101.29,-97.26C115.98,-95.18 131.5,-92.99 144.9,-91.1"/>
<polygon fill="midnightblue" stroke="midnightblue" points="100.7,-93.81 91.29,-98.67 101.68,-100.74 100.7,-93.81"/>
</g>
<!-- Node8 -->
<g id="node8" class="node">
<title>Node8</title>
<g id="a_node8"><a xlink:href="classspic_1_1RigidBody.html" target="_top" xlink:title="A component representing a rigid body.">
<polygon fill="white" stroke="black" points="139,-38.5 139,-57.5 225,-57.5 225,-38.5 139,-38.5"/>
<text text-anchor="middle" x="182" y="-45.5" font-family="Helvetica,sans-Serif" font-size="10.00">spic::RigidBody</text>
</a>
</g>
</g>
<!-- Node1&#45;&gt;Node8 -->
<g id="edge7" class="edge">
<title>Node1&#45;&gt;Node8</title>
<path fill="none" stroke="midnightblue" d="M74.42,-90.96C89.76,-83.46 109.24,-74.29 127,-67 135.09,-63.68 144,-60.39 152.21,-57.52"/>
<polygon fill="midnightblue" stroke="midnightblue" points="72.87,-87.82 65.45,-95.38 75.96,-94.1 72.87,-87.82"/>
</g>
<!-- Node9 -->
<g id="node9" class="node">
<title>Node9</title>
<g id="a_node9"><a xlink:href="classspic_1_1Sprite.html" target="_top" xlink:title="A component representing a sprite (small image)">
<polygon fill="white" stroke="black" points="149,-0.5 149,-19.5 215,-19.5 215,-0.5 149,-0.5"/>
<text text-anchor="middle" x="182" y="-7.5" font-family="Helvetica,sans-Serif" font-size="10.00">spic::Sprite</text>
</a>
</g>
</g>
<!-- Node1&#45;&gt;Node9 -->
<g id="edge8" class="edge">
<title>Node1&#45;&gt;Node9</title>
<path fill="none" stroke="midnightblue" d="M61.11,-87.46C76.1,-70.45 100.87,-44.93 127,-29 133.7,-24.91 141.41,-21.54 148.87,-18.83"/>
<polygon fill="midnightblue" stroke="midnightblue" points="58.07,-85.63 54.2,-95.49 63.38,-90.19 58.07,-85.63"/>
</g>
<!-- Node6 -->
<g id="node6" class="node">
<title>Node6</title>
<g id="a_node6"><a xlink:href="classspic_1_1BoxCollider.html" target="_top" xlink:title="A collider which represents a rectangular collision area.">
<polygon fill="white" stroke="black" points="277,-95.5 277,-114.5 368,-114.5 368,-95.5 277,-95.5"/>
<text text-anchor="middle" x="322.5" y="-102.5" font-family="Helvetica,sans-Serif" font-size="10.00">spic::BoxCollider</text>
</a>
</g>
</g>
<!-- Node5&#45;&gt;Node6 -->
<g id="edge5" class="edge">
<title>Node5&#45;&gt;Node6</title>
<path fill="none" stroke="midnightblue" d="M229.35,-92.36C244.71,-94.47 261.77,-96.81 276.99,-98.89"/>
<polygon fill="midnightblue" stroke="midnightblue" points="229.41,-88.83 219.03,-90.94 228.46,-95.77 229.41,-88.83"/>
</g>
<!-- Node7 -->
<g id="node7" class="node">
<title>Node7</title>
<g id="a_node7"><a xlink:href="classspic_1_1CircleCollider.html" target="_top" xlink:title="A collider which represents a circular collision area.">
<polygon fill="white" stroke="black" points="273,-57.5 273,-76.5 372,-76.5 372,-57.5 273,-57.5"/>
<text text-anchor="middle" x="322.5" y="-64.5" font-family="Helvetica,sans-Serif" font-size="10.00">spic::CircleCollider</text>
</a>
</g>
</g>
<!-- Node5&#45;&gt;Node7 -->
<g id="edge6" class="edge">
<title>Node5&#45;&gt;Node7</title>
<path fill="none" stroke="midnightblue" d="M228.99,-79.69C243.08,-77.76 258.62,-75.63 272.88,-73.67"/>
<polygon fill="midnightblue" stroke="midnightblue" points="228.46,-76.23 219.03,-81.06 229.41,-83.17 228.46,-76.23"/>
</g>
</g>
</svg>
