<?xml version="1.0" encoding="UTF-8" standalone="no"?>
<!DOCTYPE svg PUBLIC "-//W3C//DTD SVG 1.1//EN"
 "http://www.w3.org/Graphics/SVG/1.1/DTD/svg11.dtd">
<!-- Generated by graphviz version 2.48.0 (0)
 -->
<!-- Title: spic::GameObject Pages: 1 -->
<svg width="212pt" height="140pt"
 viewBox="0.00 0.00 212.00 140.00" xmlns="http://www.w3.org/2000/svg" xmlns:xlink="http://www.w3.org/1999/xlink">
<g id="graph0" class="graph" transform="scale(1 1) rotate(0) translate(4 136)">
<title>spic::GameObject</title>
<polygon fill="white" stroke="transparent" points="-4,4 -4,-136 208,-136 208,4 -4,4"/>
<!-- Node1 -->
<g id="node1" class="node">
<title>Node1</title>
<g id="a_node1"><a xlink:title="Any object which should be represented on screen.">
<polygon fill="#bfbfbf" stroke="black" points="38,-112.5 38,-131.5 133,-131.5 133,-112.5 38,-112.5"/>
<text text-anchor="middle" x="85.5" y="-119.5" font-family="Helvetica,sans-Serif" font-size="10.00">spic::GameObject</text>
</a>
</g>
</g>
<!-- Node2 -->
<g id="node2" class="node">
<title>Node2</title>
<g id="a_node2"><a xlink:href="classspic_1_1Camera.html" target="_top" xlink:title="Class representing a point of view towards the game scene.">
<polygon fill="white" stroke="black" points="0,-56.5 0,-75.5 75,-75.5 75,-56.5 0,-56.5"/>
<text text-anchor="middle" x="37.5" y="-63.5" font-family="Helvetica,sans-Serif" font-size="10.00">spic::Camera</text>
</a>
</g>
</g>
<!-- Node1&#45;&gt;Node2 -->
<g id="edge1" class="edge">
<title>Node1&#45;&gt;Node2</title>
<path fill="none" stroke="midnightblue" d="M70.77,-104.43C62.36,-94.97 52.15,-83.48 45.28,-75.75"/>
<polygon fill="midnightblue" stroke="midnightblue" points="68.31,-106.93 77.57,-112.08 73.55,-102.28 68.31,-106.93"/>
</g>
<!-- Node3 -->
<g id="node3" class="node">
<title>Node3</title>
<g id="a_node3"><a xlink:href="classspic_1_1UIObject.html" target="_top" xlink:title="Base class for a user interface object like Button or Text.">
<polygon fill="white" stroke="black" points="93.5,-56.5 93.5,-75.5 173.5,-75.5 173.5,-56.5 93.5,-56.5"/>
<text text-anchor="middle" x="133.5" y="-63.5" font-family="Helvetica,sans-Serif" font-size="10.00">spic::UIObject</text>
</a>
</g>
</g>
<!-- Node1&#45;&gt;Node3 -->
<g id="edge2" class="edge">
<title>Node1&#45;&gt;Node3</title>
<path fill="none" stroke="midnightblue" d="M100.23,-104.43C108.64,-94.97 118.85,-83.48 125.72,-75.75"/>
<polygon fill="midnightblue" stroke="midnightblue" points="97.45,-102.28 93.43,-112.08 102.69,-106.93 97.45,-102.28"/>
</g>
<!-- Node4 -->
<g id="node4" class="node">
<title>Node4</title>
<g id="a_node4"><a xlink:href="classspic_1_1Button.html" target="_top" xlink:title="Instances of this class are clickable user interface items.">
<polygon fill="white" stroke="black" points="58,-0.5 58,-19.5 127,-19.5 127,-0.5 58,-0.5"/>
<text text-anchor="middle" x="92.5" y="-7.5" font-family="Helvetica,sans-Serif" font-size="10.00">spic::Button</text>
</a>
</g>
</g>
<!-- Node3&#45;&gt;Node4 -->
<g id="edge3" class="edge">
<title>Node3&#45;&gt;Node4</title>
<path fill="none" stroke="midnightblue" d="M120.48,-47.86C113.38,-38.5 104.9,-27.33 99.14,-19.75"/>
<polygon fill="midnightblue" stroke="midnightblue" points="117.89,-50.24 126.73,-56.08 123.47,-46 117.89,-50.24"/>
</g>
<!-- Node5 -->
<g id="node5" class="node">
<title>Node5</title>
<g id="a_node5"><a xlink:href="classspic_1_1Text.html" target="_top" xlink:title="Class representing a piece of text which can be rendered.">
<polygon fill="white" stroke="black" points="145,-0.5 145,-19.5 204,-19.5 204,-0.5 145,-0.5"/>
<text text-anchor="middle" x="174.5" y="-7.5" font-family="Helvetica,sans-Serif" font-size="10.00">spic::Text</text>
</a>
</g>
</g>
<!-- Node3&#45;&gt;Node5 -->
<g id="edge4" class="edge">
<title>Node3&#45;&gt;Node5</title>
<path fill="none" stroke="midnightblue" d="M146.52,-47.86C153.62,-38.5 162.1,-27.33 167.86,-19.75"/>
<polygon fill="midnightblue" stroke="midnightblue" points="143.53,-46 140.27,-56.08 149.11,-50.24 143.53,-46"/>
</g>
</g>
</svg>
